<svg xmlns="http://www.w3.org/2000/svg" width="118.02" height="30" viewBox="0 0 118.02 30"><defs><style>.a{fill:#333;}.b{fill:#b81e27;}</style></defs><g transform="translate(0)"><path class="a" d="M279.942,63.133a9.995,9.995,0,0,1-3.973-1.924,3.726,3.726,0,0,1-1.246-2.824,3.893,3.893,0,0,1,1.523-3.143A6.013,6.013,0,0,1,280.191,54a6.835,6.835,0,0,1,2.963.637,4.777,4.777,0,0,1,2.007,1.772,4.441,4.441,0,0,1,.706,2.464h-2.132a2.924,2.924,0,0,0-.928-2.3,3.8,3.8,0,0,0-2.617-.831,3.88,3.88,0,0,0-2.45.692,2.33,2.33,0,0,0-.886,1.924,2.045,2.045,0,0,0,.831,1.661,8.527,8.527,0,0,0,2.838,1.246,12.957,12.957,0,0,1,3.143,1.246,4.733,4.733,0,0,1,1.675,1.592,4.123,4.123,0,0,1,.554,2.132,3.757,3.757,0,0,1-1.523,3.129,6.48,6.48,0,0,1-4.084,1.177,7.5,7.5,0,0,1-3.1-.637,5.162,5.162,0,0,1-2.215-1.744,4.261,4.261,0,0,1-.775-2.506h2.132a2.749,2.749,0,0,0,1.08,2.3,4.511,4.511,0,0,0,2.88.844,4.165,4.165,0,0,0,2.575-.678,2.252,2.252,0,0,0,.9-1.869,2.177,2.177,0,0,0-.831-1.827A8.881,8.881,0,0,0,279.942,63.133Z" transform="translate(-236.223 -46.52)"/><path class="a" d="M367.993,55.091a1.2,1.2,0,0,1,.3-.844,1.167,1.167,0,0,1,.9-.346,1.1,1.1,0,0,1,.9.346,1.18,1.18,0,0,1,.3.844,1.147,1.147,0,0,1-.3.831,1.385,1.385,0,0,1-1.8,0A1.306,1.306,0,0,1,367.993,55.091Zm2.215,15.132h-2.049V58.261h2.049Z" transform="translate(-317.033 -46.438)"/><path class="a" d="M401.252,84l.055,1.329a4.394,4.394,0,0,1,3.544-1.551,3.42,3.42,0,0,1,3.419,1.924,4.442,4.442,0,0,1,3.807-1.924c2.63,0,3.959,1.384,4,4.167v8.016H414.03V88.073a2.782,2.782,0,0,0-.581-1.924,2.562,2.562,0,0,0-1.966-.637,2.68,2.68,0,0,0-1.883.678,2.793,2.793,0,0,0-.872,1.827v7.933h-2.063V88.1a2.275,2.275,0,0,0-2.561-2.6,2.736,2.736,0,0,0-2.755,1.717v8.736H399.3V84Z" transform="translate(-344.007 -72.18)"/><path class="a" d="M540.688,66a2.1,2.1,0,0,0-.748-1.647,7.068,7.068,0,0,0-2.63-1.149,11.175,11.175,0,0,1-4.153-1.869,3.771,3.771,0,0,1-1.454-3.06,3.929,3.929,0,0,1,1.606-3.212,6.486,6.486,0,0,1,4.153-1.26,6.179,6.179,0,0,1,4.264,1.426,4.242,4.242,0,0,1,1.551,3.433l-.028.069h-2.575a2.565,2.565,0,0,0-.844-2.007,3.413,3.413,0,0,0-2.4-.775,3.478,3.478,0,0,0-2.257.637,2.046,2.046,0,0,0-.789,1.661,1.817,1.817,0,0,0,.858,1.523,9.588,9.588,0,0,0,2.838,1.149,9.378,9.378,0,0,1,3.946,1.924,4.057,4.057,0,0,1,1.357,3.129,3.814,3.814,0,0,1-1.606,3.2,6.94,6.94,0,0,1-4.222,1.191,7.487,7.487,0,0,1-4.43-1.343,4.1,4.1,0,0,1-1.841-3.669l.028-.069h2.561a2.555,2.555,0,0,0,1.011,2.2,4.426,4.426,0,0,0,2.644.72,3.906,3.906,0,0,0,2.326-.6A1.859,1.859,0,0,0,540.688,66Z" transform="translate(-457.721 -46.352)"/><path class="a" d="M632.5,96.069a7.654,7.654,0,0,1-.235-.886,6.113,6.113,0,0,1-.125-.858,4.717,4.717,0,0,1-1.454,1.412,3.72,3.72,0,0,1-2.021.568,3.981,3.981,0,0,1-2.866-.955,3.5,3.5,0,0,1-1-2.644,3.1,3.1,0,0,1,1.371-2.7,6.583,6.583,0,0,1,3.862-.969h2.09V87.984a1.91,1.91,0,0,0-.554-1.467,2.619,2.619,0,0,0-3.032-.083,1.4,1.4,0,0,0-.54,1.135h-2.617l-.014-.069a2.955,2.955,0,0,1,1.26-2.506,5.354,5.354,0,0,1,3.5-1.094,5.142,5.142,0,0,1,3.378,1.066,3.712,3.712,0,0,1,1.287,3.046v5.316a9.873,9.873,0,0,0,.1,1.426,8.447,8.447,0,0,0,.318,1.329ZM629.2,94.145a3.26,3.26,0,0,0,1.827-.512,2.525,2.525,0,0,0,1.08-1.163V90.7h-2.132a2.719,2.719,0,0,0-1.841.581,1.753,1.753,0,0,0-.664,1.371,1.4,1.4,0,0,0,.443,1.094,1.911,1.911,0,0,0,1.287.4Z" transform="translate(-538.289 -72.285)"/><path class="a" d="M705.419,93.319l.194.969h.069l.208-.969,2.381-7.919h2.769l-4.25,11.961h-2.326L700.2,85.4h2.769Z" transform="translate(-603.25 -73.577)"/><path class="a" d="M783.965,96.206a5.23,5.23,0,0,1-4.056-1.661,6.1,6.1,0,0,1-1.509-4.278v-.443a6.368,6.368,0,0,1,1.5-4.333,4.734,4.734,0,0,1,3.752-1.7,4.651,4.651,0,0,1,3.71,1.467,5.749,5.749,0,0,1,1.287,3.932v1.578h-7.462l-.028.055a3.7,3.7,0,0,0,.831,2.326,2.661,2.661,0,0,0,2.132.9,5.407,5.407,0,0,0,3.364-1.024l.858,1.758a5.571,5.571,0,0,1-1.786,1.011A7.515,7.515,0,0,1,783.965,96.206Zm-.318-10.258a1.994,1.994,0,0,0-1.634.789,4.061,4.061,0,0,0-.8,2.007l.028.055h4.748v-.277a2.833,2.833,0,0,0-.581-1.855A2.106,2.106,0,0,0,783.647,85.948Z" transform="translate(-670.624 -72.187)"/><path class="b" d="M8.874,11.587a.607.607,0,0,0,.665-.471c.941-2.533,1.9-5.067,2.838-7.614a1.149,1.149,0,0,1,1.052-.886c.568-.028.941.249,1.177.928l2.949,8.265c.6,1.661,1.191,3.323,1.814,5.067.152-.208.263-.36.374-.512.928-1.384,1.855-2.783,2.783-4.181a1.228,1.228,0,0,1,1.08-.623H34.236V2.907A2.907,2.907,0,0,0,31.329,0H2.907A2.916,2.916,0,0,0,0,2.907v8.666C2.533,11.56,7.407,11.56,8.874,11.587Z" transform="translate(0.014)"/><path class="b" d="M24.612,57.542a.862.862,0,0,0-.844.443c-1.218,1.855-2.464,3.7-3.683,5.551a1.254,1.254,0,0,1-1.232.734c-.6-.069-.844-.485-1.024-1Q15.71,57.293,13.55,51.312c-.042-.138-.111-.263-.208-.512l-2.132,5.676c-.346.941-.568,1.094-1.564,1.094H-.1v7.337h0a2.907,2.907,0,0,0,2.907,2.907H7.2v4.5a1.456,1.456,0,0,0,1.467,1.454,1.412,1.412,0,0,0,1.024-.429l5.51-5.51H31.229a2.907,2.907,0,0,0,2.907-2.907V57.584C31.8,57.57,26.231,57.57,24.612,57.542Z" transform="translate(0.1 -43.767)"/></g></svg>